<?xml version="1.0" encoding="UTF-8"?>
<svg width="250px" height="250px" viewBox="0 0 250 250" version="1.1" xmlns="http://www.w3.org/2000/svg" xmlns:xlink="http://www.w3.org/1999/xlink">
    <!-- Generator: Sketch 49.1 (51147) - http://www.bohemiancoding.com/sketch -->
    <title>Slice</title>
    <desc>Created with Sketch.</desc>
    <defs>
        <radialGradient cx="50%" cy="47.8269875%" fx="50%" fy="47.8269875%" r="53.9216018%" gradientTransform="translate(0.500000,0.478270),scale(0.927272,1.000000),scale(1.000000,1.012253),translate(-0.500000,-0.478270)" id="radialGradient-1">
            <stop stop-color="#1E0BD4" offset="0%"></stop>
            <stop stop-color="#53C2FD" offset="47.1820809%"></stop>
            <stop stop-color="#51EC7D" offset="100%"></stop>
        </radialGradient>
        <radialGradient cx="0%" cy="0%" fx="0%" fy="0%" r="294.287871%" gradientTransform="translate(0.000000,0.000000),scale(1.000000,1.275110),translate(-0.000000,-0.000000)" id="radialGradient-2">
            <stop stop-color="#3023AE" offset="0%"></stop>
            <stop stop-color="#53A0FD" offset="48.8887206%"></stop>
            <stop stop-color="#B4EC51" offset="100%"></stop>
        </radialGradient>
        <radialGradient cx="0%" cy="0%" fx="0%" fy="0%" r="300.976232%" gradientTransform="translate(0.000000,0.000000),scale(0.977778,1.000000),scale(1.000000,1.275110),translate(-0.000000,-0.000000)" id="radialGradient-3">
            <stop stop-color="#3023AE" offset="0%"></stop>
            <stop stop-color="#53A0FD" offset="48.8887206%"></stop>
            <stop stop-color="#B4EC51" offset="100%"></stop>
        </radialGradient>
    </defs>
    <g id="Page-1" stroke="none" stroke-width="1" fill="none" fill-rule="evenodd">
        <g id="noun_151268_cc" transform="translate(0.000000, 9.000000)" fill="url(#radialGradient-1)" fill-rule="nonzero">
            <g id="Group">
                <path d="M46.5822038,146.929576 C51.2482234,148.596576 54.5801657,142.148339 49.8904962,139.517706 C22.8968223,128.124736 8.96386212,117.673822 8.96386212,106.275954 C8.96386212,94.878086 30.6523104,81.882324 64.7451283,77.0029893 C66.6389596,85.1060451 67.7370736,90.6563102 75.843586,112.625431 C33.3523549,190.90369 45.9403418,215.151965 57.781106,220.053408 C69.6218703,224.954851 85.7604893,221.371434 108.33341,199.429854 C110.275869,195.263945 105.444963,190.62568 101.716825,194.760351 C85.2481714,208.060864 71.7112761,217.636577 60.9942684,212.494721 C50.277261,207.352866 51.7113874,176.73102 79.7104352,122.914702 C126.759401,226.590074 164.50995,239.004133 178.47772,228.110389 C192.445491,217.216646 199.682281,171.810513 159.87927,89.7611229 C157.193574,85.0050391 150.113031,88.6382287 152.677024,93.5513219 C188.854864,169.906809 183.858678,214.159598 174.025742,221.371434 C156.845203,233.972272 111.432308,179.599021 84.9221228,113.507652 C93.3669047,98.8009393 103.498783,86.0641235 112.188698,75.180706 C208.518079,81.6596556 240.995945,112.276996 239.840169,128.377597 C238.958412,140.66095 218.381042,149.496396 199.682281,153.445458 C193.755521,154.226665 194.881404,162.566956 200.680482,161.57552 C206.816634,160.014827 248.025469,152.562324 248.025469,126.944523 C248.025469,105.671221 212.108838,74.7226517 118.634288,67.3831917 C145.581866,35.7144452 169.273758,16.2177578 186.072709,19.9039015 C202.871661,23.5900452 191.47652,55.8142816 188.118669,66.0351096 C185.721951,71.014528 192.934826,75.0105905 195.62464,69.4747514 C197.585567,63.1766403 213.419135,23.3573116 192.445491,13.5897717 C171.471846,3.82223207 142.664191,25.2877579 108.44777,66.8975021 C98.4885135,66.5199055 84.7897909,66.4509324 71.1569687,68.0535923 C68.0413319,53.5534009 63.4067953,15.9701968 78.2615602,10.8323128 C93.1163247,5.69442881 114.704993,33.5748298 117.746098,37.3009537 C121.475699,41.6580278 127.51619,36.6394232 124.276853,32.3864044 C105.327777,8.78880905 89.5082931,-1.75450988 75.0959626,3.30341315 C60.6836321,8.36133623 55.4844354,32.4156615 63.0091365,69.0393352 C32.0370096,73.2685246 3.10597703,86.4074332 0.947032555,103.702246 C-1.85279277,126.131009 29.7602665,139.751499 46.5822038,146.929576 Z M72.9736093,76.0650376 C82.0974547,75.051361 92.8141967,74.8743617 101.93977,74.8743617 C92.8141967,86.3299496 86.3894662,95.3552035 81.2256069,103.725943 C77.8208555,93.5735584 74.5720857,83.6539079 72.9736093,76.0650376 Z" id="Shape"></path>
            </g>
        </g>
        <g id="noun_583253_cc" transform="translate(105.000000, 113.000000)" fill-rule="nonzero">
            <path d="M32.3841511,24 L25,31.392765 L36.1477804,42.5432592 C37.0823598,43.4858562 38.3333333,44 39.6699766,44 C41.0007788,44 42.2536994,43.4858562 43.1873053,42.5432592 L43.5436137,42.1878378 C44.4850078,41.2559521 45,40.000779 45,38.6638103 C45,37.3326842 44.4850078,36.0794586 43.5445872,35.1456254 L32.3841511,24 Z" id="Shape" fill="url(#radialGradient-2)"></path>
            <path d="M13.5269256,25.395364 C12.8697185,26.0375534 11.5724581,26.2324102 10.6922508,26.0993628 C7.77716726,25.6331731 4.78917985,26.5760287 2.69640933,28.6178349 C0.813773553,30.4595461 -0.16399628,33.0083991 0.0225519118,35.6054424 C0.0439942326,35.8589658 0.259489558,36.0622036 0.520013757,36.0622036 C0.678686931,36.0622036 0.678686931,36.0622036 5.41100715,32.7213519 C6.0489162,32.2624955 6.82727245,32.083353 7.61420563,32.2101147 C8.39148976,32.3389716 9.06585075,32.7643042 9.52150007,33.3928746 L9.83884642,33.8360167 C10.7812364,35.1507765 10.4520968,36.972583 9.10766328,37.8902958 L3.83499657,41.495147 C3.81248213,41.5140041 3.78889558,41.5297184 3.76852537,41.5506707 C3.66238588,41.6543848 3.61199643,41.7905751 3.62271759,41.933051 C3.63558298,42.0765746 3.70634264,42.2075268 3.82963599,42.2892409 C5.45710814,43.4353343 7.34188815,44 9.21487488,44 C11.581035,44 13.9343297,43.102192 15.7269077,41.3516234 C17.8121734,39.3129601 18.77815,36.3974411 18.3064189,33.5489696 C18.1659717,32.6857329 18.371818,31.4254493 19.0290252,30.7780218 L31.4730761,18.6057561 C32.128139,17.9635667 33.4243273,17.7666147 34.3066788,17.8996621 C37.2239066,18.3658518 40.211894,17.4229962 42.300376,15.38119 C44.1862281,13.541574 45.163998,10.9927211 44.9774498,8.39358249 C44.9656565,8.22805895 44.8691661,8.08453538 44.7287189,8.0070117 C44.5839832,7.92739278 44.4103004,7.92110708 44.259132,7.99024982 C44.2387618,8.00491646 44.2098147,8.01224978 44.1915887,8.03320213 L39.593283,11.2787206 C38.9543018,11.7386246 38.1759456,11.9167195 37.3900845,11.7899578 C36.6117283,11.6631961 35.9373673,11.2357683 35.4806459,10.6071979 L35.1643716,10.166151 C34.2219816,8.85139126 34.548977,7.02958474 35.8955548,6.11187196 C35.8955548,6.11187196 41.0996061,2.55416354 41.1703657,2.50702076 C41.302236,2.41692567 41.3794283,2.26711639 41.3815726,2.11206903 C41.3837168,1.95492643 41.3043802,1.80302192 41.1735821,1.7108316 C37.4930077,-0.884116509 32.4905142,-0.492307631 29.2741661,2.64949672 C27.1889004,4.69235049 26.2229238,7.6078695 26.6967991,10.4542458 C26.8351021,11.3153872 26.6292558,12.5777661 25.9720487,13.2230983 L13.5269256,25.395364 Z" id="Shape" fill="url(#radialGradient-3)"></path>
            <path d="M2.37608051,8.220563 C2.68037061,8.78393213 3.35500667,9.45975672 3.92785173,9.75345109 L8.06121583,11.9097573 C8.54959603,12.1630551 9.28812218,12.711139 9.67037985,13.1041872 L16.4319008,20 L20,16.4003333 L13.164843,9.58749739 C12.7685079,9.19990817 12.2313979,8.44984113 11.9725889,7.95743905 L9.83606093,3.79003605 C9.54151678,3.21574891 8.85930054,2.54101613 8.28645548,2.25933156 L4.08703552,0.156523549 C3.48386974,-0.146997026 2.56450214,0.00694686295 2.09236519,0.479696536 L0.476703875,2.11303028 C-0.0203393843,2.61416677 -0.149202452,3.49088267 0.187574136,4.11539263 L2.37608051,8.220563 Z" id="Shape" fill="url(#radialGradient-2)"></path>
        </g>
    </g>
</svg>